<svg xmlns="http://www.w3.org/2000/svg" width="1280" height="720" viewBox="0 0 1280 720">
<rect width="1280" height="720" fill="#f7f9fc"/>
<text x="60.0" y="58.0" font-size="28" font-weight="800" fill="#17202a" text-anchor="start">연도별 예측 오차</text>
<text x="60.0" y="86.0" font-size="15" font-weight="600" fill="#627084" text-anchor="start">예측 시점에 공표된 자료만 사용한 backtest 기준</text>
<line x1="120" y1="610.0" x2="1210" y2="610.0" stroke="#dbe3ee" stroke-width="1"/>
<text x="106.0" y="615.0" font-size="12" font-weight="600" fill="#728094" text-anchor="end">0%</text>
<line x1="120" y1="510.0" x2="1210" y2="510.0" stroke="#dbe3ee" stroke-width="1"/>
<text x="106.0" y="515.0" font-size="12" font-weight="600" fill="#728094" text-anchor="end">2%</text>
<line x1="120" y1="410.0" x2="1210" y2="410.0" stroke="#dbe3ee" stroke-width="1"/>
<text x="106.0" y="415.0" font-size="12" font-weight="600" fill="#728094" text-anchor="end">3%</text>
<line x1="120" y1="310.0" x2="1210" y2="310.0" stroke="#dbe3ee" stroke-width="1"/>
<text x="106.0" y="315.0" font-size="12" font-weight="600" fill="#728094" text-anchor="end">5%</text>
<line x1="120" y1="210.0" x2="1210" y2="210.0" stroke="#dbe3ee" stroke-width="1"/>
<text x="106.0" y="215.0" font-size="12" font-weight="600" fill="#728094" text-anchor="end">7%</text>
<line x1="120" y1="110.0" x2="1210" y2="110.0" stroke="#dbe3ee" stroke-width="1"/>
<text x="106.0" y="115.0" font-size="12" font-weight="600" fill="#728094" text-anchor="end">9%</text>
<rect x="159.9" y="239.2" width="34.0" height="370.8" rx="4" fill="#2f72c8"/>
<text x="176.9" y="232.2" font-size="11" font-weight="700" fill="#263447" text-anchor="middle">6.4</text>
<rect x="197.9" y="478.2" width="34.0" height="131.8" rx="4" fill="#3e8f50"/>
<text x="214.9" y="471.2" font-size="11" font-weight="700" fill="#263447" text-anchor="middle">2.3</text>
<text x="197.9" y="642.0" font-size="13" font-weight="700" fill="#263447" text-anchor="middle">2017</text>
<rect x="315.6" y="240.3" width="34.0" height="369.7" rx="4" fill="#2f72c8"/>
<text x="332.6" y="233.3" font-size="11" font-weight="700" fill="#263447" text-anchor="middle">6.4</text>
<rect x="353.6" y="480.9" width="34.0" height="129.1" rx="4" fill="#3e8f50"/>
<text x="370.6" y="473.9" font-size="11" font-weight="700" fill="#263447" text-anchor="middle">2.2</text>
<text x="353.6" y="642.0" font-size="13" font-weight="700" fill="#263447" text-anchor="middle">2018</text>
<rect x="471.3" y="304.3" width="34.0" height="305.7" rx="4" fill="#2f72c8"/>
<text x="488.3" y="297.3" font-size="11" font-weight="700" fill="#263447" text-anchor="middle">5.3</text>
<rect x="509.3" y="500.4" width="34.0" height="109.6" rx="4" fill="#3e8f50"/>
<text x="526.3" y="493.4" font-size="11" font-weight="700" fill="#263447" text-anchor="middle">1.9</text>
<text x="509.3" y="642.0" font-size="13" font-weight="700" fill="#263447" text-anchor="middle">2019</text>
<rect x="627.0" y="245.1" width="34.0" height="364.9" rx="4" fill="#2f72c8"/>
<text x="644.0" y="238.1" font-size="11" font-weight="700" fill="#263447" text-anchor="middle">6.3</text>
<rect x="665.0" y="418.0" width="34.0" height="192.0" rx="4" fill="#3e8f50"/>
<text x="682.0" y="411.0" font-size="11" font-weight="700" fill="#263447" text-anchor="middle">3.3</text>
<text x="665.0" y="642.0" font-size="13" font-weight="700" fill="#263447" text-anchor="middle">2020</text>
<rect x="782.7" y="279.9" width="34.0" height="330.1" rx="4" fill="#2f72c8"/>
<text x="799.7" y="272.9" font-size="11" font-weight="700" fill="#263447" text-anchor="middle">5.7</text>
<rect x="820.7" y="447.2" width="34.0" height="162.8" rx="4" fill="#3e8f50"/>
<text x="837.7" y="440.2" font-size="11" font-weight="700" fill="#263447" text-anchor="middle">2.8</text>
<text x="820.7" y="642.0" font-size="13" font-weight="700" fill="#263447" text-anchor="middle">2021</text>
<rect x="938.4" y="189.9" width="34.0" height="420.1" rx="4" fill="#2f72c8"/>
<text x="955.4" y="182.9" font-size="11" font-weight="700" fill="#263447" text-anchor="middle">7.3</text>
<rect x="976.4" y="395.5" width="34.0" height="214.5" rx="4" fill="#3e8f50"/>
<text x="993.4" y="388.5" font-size="11" font-weight="700" fill="#263447" text-anchor="middle">3.7</text>
<text x="976.4" y="642.0" font-size="13" font-weight="700" fill="#263447" text-anchor="middle">2022</text>
<rect x="1094.1" y="186.3" width="34.0" height="423.7" rx="4" fill="#2f72c8"/>
<text x="1111.1" y="179.3" font-size="11" font-weight="700" fill="#263447" text-anchor="middle">7.4</text>
<rect x="1132.1" y="442.0" width="34.0" height="168.0" rx="4" fill="#3e8f50"/>
<text x="1149.1" y="435.0" font-size="11" font-weight="700" fill="#263447" text-anchor="middle">2.9</text>
<text x="1132.1" y="642.0" font-size="13" font-weight="700" fill="#263447" text-anchor="middle">2023</text>
<rect x="120" y="640" width="18" height="18" rx="4" fill="#2f72c8"/>
<text x="146.0" y="655.0" font-size="13" font-weight="700" fill="#263447" text-anchor="start">MAPE</text>
<rect x="305" y="640" width="18" height="18" rx="4" fill="#3e8f50"/>
<text x="331.0" y="655.0" font-size="13" font-weight="700" fill="#263447" text-anchor="start">WMAPE</text>
<text x="1210.0" y="682.0" font-size="12" font-weight="600" fill="#728094" text-anchor="end">단위: %</text>
</svg>